<svg width="24" height="20" viewBox="0 0 24 20" fill="none" xmlns="http://www.w3.org/2000/svg">
<path d="M24 9.99995C24 10.2652 23.8946 10.5195 23.7071 10.7071C23.5196 10.8946 23.2652 10.9999 23 10.9999H3.41374L10.7075 18.2924C10.8004 18.3854 10.8741 18.4957 10.9244 18.6171C10.9747 18.7384 11.0005 18.8686 11.0005 18.9999C11.0005 19.1313 10.9747 19.2614 10.9244 19.3828C10.8741 19.5042 10.8004 19.6145 10.7075 19.7074C10.6146 19.8004 10.5043 19.8741 10.3829 19.9243C10.2615 19.9746 10.1314 20.0005 9.99999 20.0005C9.8686 20.0005 9.73849 19.9746 9.6171 19.9243C9.4957 19.8741 9.3854 19.8004 9.29249 19.7074L0.292493 10.7074C0.199517 10.6146 0.125758 10.5043 0.0754335 10.3829C0.0251092 10.2615 -0.000793457 10.1314 -0.000793457 9.99995C-0.000793457 9.86853 0.0251092 9.7384 0.0754335 9.61701C0.125758 9.49561 0.199517 9.38532 0.292493 9.29245L9.29249 0.292446C9.48013 0.104805 9.73463 -0.000610354 9.99999 -0.000610352C10.2654 -0.00061035 10.5199 0.104805 10.7075 0.292446C10.8951 0.480086 11.0005 0.734582 11.0005 0.999946C11.0005 1.26531 10.8951 1.5198 10.7075 1.70745L3.41374 8.99995H23C23.2652 8.99995 23.5196 9.1053 23.7071 9.29284C23.8946 9.48038 24 9.73473 24 9.99995Z" fill="black"/>
</svg>
